<?xml version="1.0" standalone="no"?>
<!DOCTYPE svg PUBLIC "-//W3C//DTD SVG 20010904//EN"
 "http://www.w3.org/TR/2001/REC-SVG-20010904/DTD/svg10.dtd">
<svg version="1.0" xmlns="http://www.w3.org/2000/svg"
 width="254.000000pt" height="254.000000pt" viewBox="0 0 254.000000 254.000000"
 preserveAspectRatio="xMidYMid meet">
<metadata>
Created by potrace 1.11, written by Peter Selinger 2001-2013
</metadata>
<g transform="translate(0.000000,254.000000) scale(0.100000,-0.100000)"
fill="#000000" stroke="none">
<path d="M299 2516 c-115 -38 -208 -119 -257 -224 l-27 -57 0 -965 0 -965 27
-58 c40 -85 135 -176 223 -213 l70 -29 904 -3 c584 -2 924 1 960 8 128 23 254
120 309 237 l27 58 0 965 0 965 -32 66 c-35 71 -99 138 -173 182 -97 57 -77
56 -1060 56 l-905 0 -66 -23z"/>
</g>
</svg>
